# Blender v2.93.1 OBJ File: ''
# www.blender.org
mtllib Figure3.mtl
o Top_Hat_Mesh.014
v 0.391830 0.095908 -0.000000
v 0.368200 0.096674 -0.134014
v 0.300159 0.097617 -0.251864
v 0.195915 0.098267 -0.339335
v 0.068041 0.098681 -0.385877
v -0.068041 0.098681 -0.385877
v -0.195915 0.098267 -0.339335
v -0.300159 0.097617 -0.251864
v -0.368200 0.096674 -0.134014
v -0.391830 0.095908 -0.000000
v -0.368200 0.096674 0.134014
v -0.300159 0.097617 0.251863
v -0.195915 0.098267 0.339335
v -0.068041 0.098681 0.385877
v 0.068040 0.098681 0.385877
v 0.195915 0.098267 0.339335
v 0.300159 0.097617 0.251864
v 0.368200 0.096674 0.134014
v 0.342865 0.833774 -0.000000
v 0.346424 0.809001 -0.126088
v 0.282407 0.809773 -0.236968
v 0.184328 0.810304 -0.319266
v 0.064017 0.810643 -0.363056
v -0.064017 0.810643 -0.363056
v -0.184328 0.810304 -0.319266
v -0.282407 0.809773 -0.236968
v -0.346424 0.809001 -0.126088
v -0.368656 0.808374 -0.000000
v -0.346424 0.809001 0.126088
v -0.282407 0.809773 0.236968
v -0.184328 0.810304 0.319266
v -0.064017 0.810643 0.363056
v 0.064016 0.810643 0.363056
v 0.184328 0.810304 0.319266
v 0.282407 0.809773 0.236968
v 0.322187 0.834401 0.117267
v 0.391830 0.167157 -0.000000
v 0.368200 0.167758 -0.134014
v 0.300159 0.168499 -0.251864
v 0.195915 0.169009 -0.339335
v 0.068041 0.169334 -0.385877
v -0.068041 0.169334 -0.385877
v -0.195915 0.169009 -0.339335
v -0.300159 0.168499 -0.251864
v -0.368200 0.167758 -0.134014
v -0.391830 0.167157 -0.000000
v -0.368200 0.167758 0.134014
v -0.300159 0.168499 0.251863
v -0.195915 0.169009 0.339335
v -0.068041 0.169334 0.385877
v 0.068040 0.169334 0.385877
v 0.195915 0.169009 0.339335
v 0.300159 0.168499 0.251864
v 0.368200 0.167758 0.134014
v 0.368656 0.808374 -0.000000
v 0.322187 0.834401 -0.117267
v 0.262650 0.835173 -0.220389
v 0.171432 0.835704 -0.296930
v 0.059538 0.836043 -0.337656
v -0.059538 0.836043 -0.337656
v -0.171432 0.835704 -0.296929
v -0.262650 0.835173 -0.220389
v -0.322187 0.834401 -0.117267
v -0.342865 0.833774 -0.000000
v -0.322187 0.834401 0.117267
v -0.262650 0.835173 0.220389
v -0.171432 0.835704 0.296929
v -0.059538 0.836043 0.337656
v 0.059538 0.836043 0.337656
v 0.171432 0.835704 0.296930
v 0.262649 0.835173 0.220389
v 0.346424 0.809001 0.126088
v 0.368656 0.192997 -0.000000
v 0.346424 0.193544 -0.126088
v 0.282407 0.194217 -0.236968
v 0.184328 0.194680 -0.319266
v 0.064017 0.194976 -0.363056
v -0.064017 0.194976 -0.363056
v -0.184328 0.194680 -0.319266
v -0.282407 0.194217 -0.236968
v -0.346424 0.193544 -0.126088
v -0.368656 0.192997 -0.000000
v -0.346424 0.193544 0.126088
v -0.282407 0.194217 0.236968
v -0.184328 0.194680 0.319266
v -0.064017 0.194976 0.363056
v 0.064016 0.194976 0.363056
v 0.184328 0.194680 0.319266
v 0.282407 0.194217 0.236968
v 0.346424 0.193544 0.126088
v 0.391830 0.002341 -0.000000
v 0.368200 0.003107 -0.134014
v 0.300159 0.004050 -0.251864
v 0.195915 0.004699 -0.339335
v 0.068041 0.005114 -0.385877
v -0.068041 0.005114 -0.385877
v -0.195915 0.004699 -0.339335
v -0.300159 0.004050 -0.251864
v -0.368200 0.003107 -0.134014
v -0.391830 0.002341 -0.000000
v -0.368200 0.003107 0.134014
v -0.300159 0.004050 0.251863
v -0.195915 0.004699 0.339335
v -0.068041 0.005114 0.385877
v 0.068040 0.005114 0.385877
v 0.195915 0.004699 0.339335
v 0.300159 0.004050 0.251864
v 0.368200 0.003107 0.134014
v 0.606821 0.096674 -0.221055
v 0.645830 0.095908 -0.000000
v 0.606820 0.096674 0.221056
v 0.494627 0.097617 0.415260
v 0.322818 0.098267 0.559361
v 0.112104 0.098681 0.636026
v -0.112105 0.098681 0.636026
v -0.322819 0.098267 0.559361
v -0.494627 0.097617 0.415259
v -0.606821 0.096674 0.221055
v -0.645830 0.095908 -0.000000
v -0.606821 0.096674 -0.221055
v -0.494627 0.097617 -0.415260
v -0.322818 0.098267 -0.559361
v -0.112104 0.098681 -0.636026
v 0.112104 0.098681 -0.636026
v 0.322818 0.098267 -0.559361
v 0.494627 0.097617 -0.415259
v 0.645830 0.002341 -0.000000
v 0.606943 0.003107 -0.220719
v 0.494842 0.004050 -0.415004
v 0.323012 0.004699 -0.559249
v 0.112190 0.005114 -0.636011
v -0.112190 0.005114 -0.636011
v -0.323012 0.004699 -0.559249
v -0.494842 0.004050 -0.415004
v -0.606943 0.003107 -0.220719
v -0.645830 0.002341 -0.000000
v -0.606943 0.003107 0.220718
v -0.494842 0.004050 0.415004
v -0.323012 0.004699 0.559249
v -0.112190 0.005114 0.636011
v 0.112190 0.005114 0.636011
v 0.323011 0.004699 0.559250
v 0.494841 0.004050 0.415004
v 0.606943 0.003107 0.220719
vt 0.340954 0.936975
vt 0.201091 0.856225
vt 0.097282 0.732509
vt 0.042046 0.580750
vt 0.042046 0.419250
vt 0.097282 0.267490
vt 0.201091 0.143775
vt 0.340954 0.063025
vt 0.500000 0.034981
vt 0.659046 0.063025
vt 0.798908 0.143775
vt 0.902718 0.267490
vt 0.957954 0.419250
vt 0.957954 0.580750
vt 0.902718 0.732509
vt 0.798909 0.856225
vt 0.659046 0.936975
vt 0.500000 0.965019
vt 0.328990 0.969846
vt 0.328990 0.969846
vt 0.500000 1.000000
vt 0.500000 1.000000
vt 0.178606 0.883022
vt 0.178606 0.883022
vt 0.066987 0.750000
vt 0.066987 0.750000
vt 0.007596 0.586824
vt 0.007596 0.586824
vt 0.007596 0.413176
vt 0.007596 0.413176
vt 0.066987 0.250000
vt 0.066987 0.250000
vt 0.178606 0.116978
vt 0.178606 0.116978
vt 0.328990 0.030154
vt 0.328990 0.030154
vt 0.500000 0.000000
vt 0.500000 0.000000
vt 0.671010 0.030154
vt 0.671010 0.030154
vt 0.821394 0.116978
vt 0.821394 0.116978
vt 0.933013 0.250000
vt 0.933013 0.250000
vt 0.992404 0.413176
vt 0.992404 0.413176
vt 0.992404 0.586824
vt 0.992404 0.586824
vt 0.933013 0.750000
vt 0.933013 0.750000
vt 0.821394 0.883022
vt 0.821394 0.883022
vt 0.671010 0.969846
vt 0.671010 0.969846
vt 0.500000 1.000000
vt 0.500000 1.000000
vt 0.328990 0.969846
vt 0.328990 0.969846
vt 0.178606 0.883022
vt 0.178606 0.883022
vt 0.066987 0.750000
vt 0.066987 0.750000
vt 0.007596 0.586824
vt 0.007596 0.586824
vt 0.007596 0.413176
vt 0.007596 0.413176
vt 0.066987 0.250000
vt 0.066987 0.250000
vt 0.178606 0.116978
vt 0.178606 0.116978
vt 0.328990 0.030154
vt 0.328990 0.030154
vt 0.500000 0.000000
vt 0.500000 0.000000
vt 0.671010 0.030154
vt 0.671010 0.030154
vt 0.821394 0.116978
vt 0.821394 0.116978
vt 0.933013 0.250000
vt 0.933013 0.250000
vt 0.992404 0.413176
vt 0.992404 0.413176
vt 0.992404 0.586824
vt 0.992404 0.586824
vt 0.933013 0.750000
vt 0.933013 0.750000
vt 0.821394 0.883022
vt 0.821394 0.883022
vt 0.671010 0.969846
vt 0.671010 0.969846
vt 0.328990 0.969846
vt 0.500000 1.000000
vt 0.500000 1.000000
vt 0.328990 0.969846
vt 0.178606 0.883022
vt 0.178606 0.883022
vt 0.066987 0.750000
vt 0.066987 0.750000
vt 0.007596 0.586824
vt 0.007596 0.586824
vt 0.007596 0.413176
vt 0.007596 0.413176
vt 0.066987 0.250000
vt 0.066987 0.250000
vt 0.178606 0.116978
vt 0.178606 0.116978
vt 0.328990 0.030154
vt 0.328990 0.030154
vt 0.500000 0.000000
vt 0.500000 0.000000
vt 0.671010 0.030154
vt 0.671010 0.030154
vt 0.821394 0.116978
vt 0.821394 0.116978
vt 0.933013 0.250000
vt 0.933013 0.250000
vt 0.992404 0.413176
vt 0.992404 0.413176
vt 0.992404 0.586824
vt 0.992404 0.586824
vt 0.933013 0.750000
vt 0.933013 0.750000
vt 0.821394 0.883022
vt 0.821394 0.883022
vt 0.671010 0.969846
vt 0.671010 0.969846
vt 0.671010 0.969846
vt 0.821394 0.883022
vt 0.933013 0.750000
vt 0.992404 0.586824
vt 0.992404 0.413176
vt 0.933013 0.250000
vt 0.821394 0.116978
vt 0.671010 0.030154
vt 0.500000 0.000000
vt 0.328990 0.030154
vt 0.178606 0.116978
vt 0.066987 0.250000
vt 0.007596 0.413176
vt 0.007596 0.586824
vt 0.066987 0.750000
vt 0.178606 0.883022
vt 0.328990 0.969846
vt 0.500000 1.000000
vn 0.0094 1.0000 0.0005
vn -0.0009 1.0000 0.0080
vn 0.0015 1.0000 0.0020
vn 0.0000 1.0000 0.0083
vn 0.0001 1.0000 0.0076
vn -0.0009 1.0000 0.0059
vn -0.0033 1.0000 0.0016
vn -0.0053 1.0000 0.0044
vn -0.0159 0.9999 0.0000
vn -0.0053 1.0000 -0.0044
vn -0.0033 1.0000 -0.0016
vn -0.0009 1.0000 -0.0059
vn 0.0001 1.0000 -0.0076
vn 0.0000 1.0000 -0.0083
vn 0.0015 1.0000 -0.0020
vn -0.0009 1.0000 -0.0080
vn 0.0094 1.0000 -0.0005
vn 0.0303 0.9995 0.0000
vn 0.9399 -0.0000 -0.3415
vn 0.9395 0.0000 -0.3426
vn 1.0000 0.0000 0.0000
vn 0.7664 0.0000 -0.6424
vn 0.7657 0.0000 -0.6432
vn 0.5003 0.0000 -0.8659
vn 0.4997 0.0000 -0.8662
vn 0.1738 0.0000 -0.9848
vn 0.1735 0.0000 -0.9848
vn -0.1735 0.0000 -0.9848
vn -0.1738 0.0000 -0.9848
vn -0.4997 0.0000 -0.8662
vn -0.5003 0.0000 -0.8659
vn -0.7657 0.0000 -0.6432
vn -0.7664 0.0000 -0.6424
vn -0.9395 -0.0000 -0.3426
vn -0.9399 0.0000 -0.3415
vn -1.0000 -0.0000 0.0000
vn -0.9399 -0.0000 0.3415
vn -0.9395 0.0000 0.3426
vn -0.7664 0.0000 0.6424
vn -0.7657 0.0000 0.6432
vn -0.5003 0.0000 0.8659
vn -0.4997 0.0000 0.8662
vn -0.1738 0.0000 0.9848
vn -0.1735 0.0000 0.9848
vn 0.1735 0.0000 0.9848
vn 0.1738 0.0000 0.9848
vn 0.4997 0.0000 0.8662
vn 0.5003 0.0000 0.8659
vn 0.7657 0.0000 0.6432
vn 0.7664 -0.0000 0.6424
vn 0.9395 0.0000 0.3426
vn 0.9399 -0.0000 0.3415
vn 0.9399 0.0000 -0.3414
vn 0.9395 0.0000 -0.3425
vn 0.7665 0.0000 -0.6423
vn 0.5004 0.0000 -0.8658
vn -0.5004 0.0000 -0.8658
vn -0.7665 0.0000 -0.6423
vn -0.9399 0.0000 -0.3414
vn -0.9395 0.0000 -0.3425
vn -0.9399 0.0000 0.3414
vn -0.9395 -0.0000 0.3425
vn -0.7665 0.0000 0.6423
vn -0.5004 0.0000 0.8658
vn 0.5004 0.0000 0.8658
vn 0.7665 0.0000 0.6423
vn 0.9399 0.0000 0.3414
vn 0.9395 -0.0000 0.3425
vn 0.7017 0.7124 -0.0001
vn 0.6608 0.7126 -0.2359
vn 0.6607 0.7124 -0.2365
vn 0.5401 0.7126 -0.4479
vn 0.5398 0.7124 -0.4484
vn 0.3532 0.7125 -0.6063
vn 0.3529 0.7125 -0.6065
vn 0.1229 0.7125 -0.6908
vn 0.1228 0.7125 -0.6909
vn -0.1229 0.7125 -0.6908
vn -0.1227 0.7125 -0.6908
vn -0.3532 0.7125 -0.6064
vn -0.3528 0.7125 -0.6065
vn -0.5401 0.7124 -0.4480
vn -0.5397 0.7126 -0.4483
vn -0.6609 0.7124 -0.2359
vn -0.6606 0.7125 -0.2364
vn -0.7017 0.7124 0.0001
vn -0.6608 0.7126 0.2359
vn -0.6607 0.7124 0.2365
vn -0.5401 0.7126 0.4479
vn -0.5398 0.7124 0.4484
vn -0.3532 0.7125 0.6063
vn -0.3529 0.7125 0.6065
vn -0.1229 0.7125 0.6908
vn -0.1228 0.7125 0.6909
vn 0.1229 0.7125 0.6908
vn 0.1227 0.7125 0.6908
vn 0.3532 0.7125 0.6064
vn 0.3528 0.7125 0.6065
vn 0.5401 0.7124 0.4480
vn 0.5397 0.7126 0.4483
vn 0.6609 0.7124 0.2359
vn 0.6606 0.7125 0.2364
vn 0.7445 0.6677 0.0000
vn 0.7002 0.6684 -0.2510
vn 0.6999 0.6685 -0.2516
vn 0.5713 0.6694 -0.4750
vn 0.5708 0.6694 -0.4754
vn 0.3731 0.6701 -0.6417
vn 0.3727 0.6701 -0.6419
vn 0.1297 0.6705 -0.7305
vn 0.1295 0.6705 -0.7305
vn -0.1297 0.6705 -0.7305
vn -0.1296 0.6705 -0.7305
vn -0.3731 0.6701 -0.6417
vn -0.3728 0.6701 -0.6419
vn -0.5712 0.6694 -0.4749
vn -0.5709 0.6694 -0.4754
vn -0.7001 0.6685 -0.2510
vn -0.6999 0.6684 -0.2516
vn -0.7445 0.6677 -0.0000
vn -0.7002 0.6684 0.2510
vn -0.6999 0.6685 0.2516
vn -0.5713 0.6694 0.4750
vn -0.5708 0.6694 0.4754
vn -0.3731 0.6701 0.6417
vn -0.3727 0.6701 0.6419
vn -0.1297 0.6705 0.7305
vn -0.1295 0.6705 0.7305
vn 0.1297 0.6705 0.7305
vn 0.1296 0.6705 0.7305
vn 0.3731 0.6701 0.6417
vn 0.3728 0.6701 0.6419
vn 0.5712 0.6694 0.4749
vn 0.5709 0.6694 0.4754
vn 0.7001 0.6685 0.2510
vn 0.6999 0.6684 0.2516
vn 0.9394 -0.0001 -0.3429
vn 1.0000 0.0001 -0.0001
vn 0.9400 0.0002 -0.3412
vn 0.7655 -0.0002 -0.6434
vn 0.7666 0.0001 -0.6421
vn 0.4995 -0.0001 -0.8663
vn 0.5005 0.0001 -0.8657
vn 0.1735 -0.0001 -0.9848
vn 0.1739 0.0000 -0.9848
vn -0.1734 -0.0000 -0.9849
vn -0.1738 -0.0001 -0.9848
vn -0.4995 0.0001 -0.8663
vn -0.5005 -0.0001 -0.8658
vn -0.7655 0.0001 -0.6435
vn -0.7666 -0.0002 -0.6421
vn -0.9394 0.0002 -0.3428
vn -0.9400 -0.0001 -0.3411
vn -1.0000 0.0001 0.0001
vn -0.9394 -0.0001 0.3429
vn -0.9400 0.0002 0.3412
vn -0.7655 -0.0002 0.6434
vn -0.7666 0.0001 0.6421
vn -0.4995 -0.0001 0.8663
vn -0.5005 0.0001 0.8657
vn -0.1735 -0.0001 0.9848
vn -0.1739 0.0000 0.9848
vn 0.1734 0.0000 0.9849
vn 0.1738 -0.0001 0.9848
vn 0.4995 0.0001 0.8663
vn 0.5005 -0.0001 0.8658
vn 0.7655 0.0001 0.6435
vn 0.7666 -0.0002 0.6422
vn 0.9394 0.0002 0.3428
vn 0.9400 -0.0001 0.3411
vn -0.0000 -1.0000 0.0063
vn -0.0031 -1.0000 0.0042
vn -0.0040 -1.0000 0.0073
vn -0.0019 -1.0000 0.0003
vn -0.0016 -1.0000 0.0070
vn 0.0027 -1.0000 0.0009
vn -0.0002 -1.0000 0.0049
vn 0.0057 -1.0000 0.0047
vn 0.0021 -1.0000 0.0048
vn 0.0033 -1.0000 0.0047
vn 0.0057 -1.0000 -0.0047
vn 0.0007 -1.0000 -0.0049
vn 0.0024 -1.0000 -0.0066
vn 0.0186 -0.9998 0.0000
vn 0.0030 -1.0000 -0.0020
vn 0.0031 -1.0000 -0.0068
vn -0.0006 -1.0000 0.0002
vn 0.0002 -1.0000 -0.0063
vn -0.0035 -1.0000 -0.0028
vn -0.0013 -1.0000 -0.0064
vn -0.0324 -0.9995 -0.0000
vn 0.0005 1.0000 0.0041
vn 0.0009 1.0000 -0.0045
vn 0.0004 1.0000 0.0045
vn 0.0025 1.0000 0.0055
vn 0.0034 1.0000 -0.0039
vn 0.0015 1.0000 -0.0051
vn 0.0029 1.0000 -0.0022
vn 0.0035 1.0000 -0.0048
vn 0.0022 1.0000 -0.0007
vn 0.0033 1.0000 -0.0023
vn 0.0000 1.0000 -0.0000
vn 0.0024 1.0000 -0.0006
vn -0.0024 1.0000 -0.0010
vn -0.0029 1.0000 -0.0032
vn -0.0023 1.0000 -0.0011
vn -0.0021 1.0000 -0.0056
vn -0.0027 1.0000 -0.0027
vn -0.0005 1.0000 -0.0042
vn -0.0025 1.0000 -0.0055
vn -0.0009 1.0000 0.0046
vn -0.0004 1.0000 -0.0045
vn -0.0034 1.0000 0.0039
vn -0.0015 1.0000 0.0051
vn -0.0029 1.0000 0.0022
vn -0.0035 1.0000 0.0048
vn -0.0022 1.0000 0.0007
vn -0.0033 1.0000 0.0023
vn -0.0024 1.0000 0.0006
vn 0.0024 1.0000 0.0009
vn 0.0029 1.0000 0.0030
vn 0.0023 1.0000 0.0011
vn 0.0021 1.0000 0.0057
vn 0.0027 1.0000 0.0027
vn -0.0009 -1.0000 -0.0046
vn -0.0015 -1.0000 -0.0051
vn -0.0004 -1.0000 0.0045
vn -0.0034 -1.0000 -0.0048
vn -0.0033 -1.0000 -0.0023
vn -0.0024 -1.0000 -0.0006
vn 0.0000 -1.0000 -0.0000
vn 0.0023 -1.0000 -0.0011
vn 0.0027 -1.0000 -0.0027
vn 0.0025 -1.0000 -0.0055
vn 0.0004 -1.0000 -0.0045
vn 0.0015 -1.0000 0.0051
vn 0.0034 -1.0000 0.0048
vn 0.0033 -1.0000 0.0023
vn 0.0023 -1.0000 0.0006
vn -0.0023 -1.0000 0.0011
vn -0.0027 -1.0000 0.0027
vn -0.0025 -1.0000 0.0055
usemtl 09_-_Default
s 1
f 56/1/1 57/2/2 58/3/3
f 58/3/3 59/4/4 60/5/5
f 60/5/5 61/6/6 62/7/7
f 58/3/3 60/5/5 62/7/7
f 62/7/7 63/8/8 64/9/9
f 64/9/9 65/10/10 66/11/11
f 62/7/7 64/9/9 66/11/11
f 66/11/11 67/12/12 68/13/13
f 68/13/13 69/14/14 70/15/15
f 66/11/11 68/13/13 70/15/15
f 62/7/7 66/11/11 70/15/15
f 58/3/3 62/7/7 70/15/15
f 70/15/15 71/16/16 36/17/17
f 58/3/3 70/15/15 36/17/17
f 56/1/1 58/3/3 36/17/17
f 19/18/18 56/1/1 36/17/17
f 74/19/19 20/20/20 55/21/21
f 55/21/21 73/22/21 74/19/19
f 75/23/22 21/24/23 20/20/20
f 20/20/20 74/19/19 75/23/22
f 76/25/24 22/26/25 21/24/23
f 21/24/23 75/23/22 76/25/24
f 77/27/26 23/28/27 22/26/25
f 22/26/25 76/25/24 77/27/26
f 24/29/28 23/28/27 77/27/26
f 77/27/26 78/30/29 24/29/28
f 25/31/30 24/29/28 78/30/29
f 78/30/29 79/32/31 25/31/30
f 26/33/32 25/31/30 79/32/31
f 79/32/31 80/34/33 26/33/32
f 27/35/34 26/33/32 80/34/33
f 80/34/33 81/36/35 27/35/34
f 28/37/36 27/35/34 81/36/35
f 81/36/35 82/38/36 28/37/36
f 83/39/37 29/40/38 28/37/36
f 28/37/36 82/38/36 83/39/37
f 84/41/39 30/42/40 29/40/38
f 29/40/38 83/39/37 84/41/39
f 85/43/41 31/44/42 30/42/40
f 30/42/40 84/41/39 85/43/41
f 86/45/43 32/46/44 31/44/42
f 31/44/42 85/43/41 86/45/43
f 33/47/45 32/46/44 86/45/43
f 86/45/43 87/48/46 33/47/45
f 34/49/47 33/47/45 87/48/46
f 87/48/46 88/50/48 34/49/47
f 35/51/49 34/49/47 88/50/48
f 88/50/48 89/52/50 35/51/49
f 72/53/51 35/51/49 89/52/50
f 89/52/50 90/54/52 72/53/51
f 55/21/21 72/53/51 90/54/52
f 90/54/52 73/22/21 55/21/21
f 37/55/21 1/56/21 2/57/53
f 2/57/53 38/58/54 37/55/21
f 38/58/54 2/57/53 3/59/55
f 3/59/55 39/60/23 38/58/54
f 39/60/23 3/59/55 4/61/56
f 4/61/56 40/62/25 39/60/23
f 40/62/25 4/61/56 5/63/26
f 5/63/26 41/64/27 40/62/25
f 5/63/26 6/65/29 42/66/28
f 42/66/28 41/64/27 5/63/26
f 6/65/29 7/67/57 43/68/30
f 43/68/30 42/66/28 6/65/29
f 7/67/57 8/69/58 44/70/32
f 44/70/32 43/68/30 7/67/57
f 8/69/58 9/71/59 45/72/60
f 45/72/60 44/70/32 8/69/58
f 9/71/59 10/73/36 46/74/36
f 46/74/36 45/72/60 9/71/59
f 46/74/36 10/73/36 11/75/61
f 11/75/61 47/76/62 46/74/36
f 47/76/62 11/75/61 12/77/63
f 12/77/63 48/78/40 47/76/62
f 48/78/40 12/77/63 13/79/64
f 13/79/64 49/80/42 48/78/40
f 49/80/42 13/79/64 14/81/43
f 14/81/43 50/82/44 49/80/42
f 14/81/43 15/83/46 51/84/45
f 51/84/45 50/82/44 14/81/43
f 15/83/46 16/85/65 52/86/47
f 52/86/47 51/84/45 15/83/46
f 16/85/65 17/87/66 53/88/49
f 53/88/49 52/86/47 16/85/65
f 17/87/66 18/89/67 54/90/68
f 54/90/68 53/88/49 17/87/66
f 18/89/67 1/56/21 37/55/21
f 37/55/21 54/90/68 18/89/67
f 19/18/69 55/21/69 20/20/70
f 20/20/70 56/1/71 19/18/69
f 56/1/71 20/20/70 21/24/72
f 21/24/72 57/2/73 56/1/71
f 57/2/73 21/24/72 22/26/74
f 22/26/74 58/3/75 57/2/73
f 58/3/75 22/26/74 23/28/76
f 23/28/76 59/4/77 58/3/75
f 59/4/77 23/28/76 24/29/78
f 24/29/78 60/5/79 59/4/77
f 60/5/79 24/29/78 25/31/80
f 25/31/80 61/6/81 60/5/79
f 61/6/81 25/31/80 26/33/82
f 26/33/82 62/7/83 61/6/81
f 62/7/83 26/33/82 27/35/84
f 27/35/84 63/8/85 62/7/83
f 63/8/85 27/35/84 28/37/86
f 28/37/86 64/9/86 63/8/85
f 64/9/86 28/37/86 29/40/87
f 29/40/87 65/10/88 64/9/86
f 65/10/88 29/40/87 30/42/89
f 30/42/89 66/11/90 65/10/88
f 66/11/90 30/42/89 31/44/91
f 31/44/91 67/12/92 66/11/90
f 67/12/92 31/44/91 32/46/93
f 32/46/93 68/13/94 67/12/92
f 68/13/94 32/46/93 33/47/95
f 33/47/95 69/14/96 68/13/94
f 69/14/96 33/47/95 34/49/97
f 34/49/97 70/15/98 69/14/96
f 70/15/98 34/49/97 35/51/99
f 35/51/99 71/16/100 70/15/98
f 71/16/100 35/51/99 72/53/101
f 72/53/101 36/17/102 71/16/100
f 36/17/102 72/53/101 55/21/69
f 55/21/69 19/18/69 36/17/102
f 73/22/103 37/55/103 38/58/104
f 38/58/104 74/19/105 73/22/103
f 74/19/105 38/58/104 39/60/106
f 39/60/106 75/23/107 74/19/105
f 75/23/107 39/60/106 40/62/108
f 40/62/108 76/25/109 75/23/107
f 76/25/109 40/62/108 41/64/110
f 41/64/110 77/27/111 76/25/109
f 77/27/111 41/64/110 42/66/112
f 42/66/112 78/30/113 77/27/111
f 78/30/113 42/66/112 43/68/114
f 43/68/114 79/32/115 78/30/113
f 79/32/115 43/68/114 44/70/116
f 44/70/116 80/34/117 79/32/115
f 80/34/117 44/70/116 45/72/118
f 45/72/118 81/36/119 80/34/117
f 81/36/119 45/72/118 46/74/120
f 46/74/120 82/38/120 81/36/119
f 82/38/120 46/74/120 47/76/121
f 47/76/121 83/39/122 82/38/120
f 83/39/122 47/76/121 48/78/123
f 48/78/123 84/41/124 83/39/122
f 84/41/124 48/78/123 49/80/125
f 49/80/125 85/43/126 84/41/124
f 85/43/126 49/80/125 50/82/127
f 50/82/127 86/45/128 85/43/126
f 86/45/128 50/82/127 51/84/129
f 51/84/129 87/48/130 86/45/128
f 87/48/130 51/84/129 52/86/131
f 52/86/131 88/50/132 87/48/130
f 88/50/132 52/86/131 53/88/133
f 53/88/133 89/52/134 88/50/132
f 89/52/134 53/88/133 54/90/135
f 54/90/135 90/54/136 89/52/134
f 90/54/136 54/90/135 37/55/103
f 37/55/103 73/22/103 90/54/136
f 109/91/137 110/92/138 127/93/138
f 127/93/138 128/94/139 109/91/137
f 126/95/140 109/91/137 128/94/139
f 128/94/139 129/96/141 126/95/140
f 125/97/142 126/95/140 129/96/141
f 129/96/141 130/98/143 125/97/142
f 124/99/144 125/97/142 130/98/143
f 130/98/143 131/100/145 124/99/144
f 123/101/146 124/99/144 131/100/145
f 131/100/145 132/102/147 123/101/146
f 122/103/148 123/101/146 132/102/147
f 132/102/147 133/104/149 122/103/148
f 121/105/150 122/103/148 133/104/149
f 133/104/149 134/106/151 121/105/150
f 120/107/152 121/105/150 134/106/151
f 134/106/151 135/108/153 120/107/152
f 119/109/154 120/107/152 135/108/153
f 135/108/153 136/110/154 119/109/154
f 118/111/155 119/109/154 136/110/154
f 136/110/154 137/112/156 118/111/155
f 117/113/157 118/111/155 137/112/156
f 137/112/156 138/114/158 117/113/157
f 116/115/159 117/113/157 138/114/158
f 138/114/158 139/116/160 116/115/159
f 115/117/161 116/115/159 139/116/160
f 139/116/160 140/118/162 115/117/161
f 114/119/163 115/117/161 140/118/162
f 140/118/162 141/120/164 114/119/163
f 113/121/165 114/119/163 141/120/164
f 141/120/164 142/122/166 113/121/165
f 112/123/167 113/121/165 142/122/166
f 142/122/166 143/124/168 112/123/167
f 111/125/169 112/123/167 143/124/168
f 143/124/168 144/126/170 111/125/169
f 110/92/138 111/125/169 144/126/170
f 144/126/170 127/93/138 110/92/138
f 108/127/171 107/128/172 106/129/173
f 106/129/173 105/130/174 104/131/175
f 104/131/175 103/132/176 102/133/177
f 106/129/173 104/131/175 102/133/177
f 102/133/178 101/134/179 100/135/180
f 100/135/181 99/136/182 98/137/183
f 102/133/184 100/135/184 98/137/184
f 98/137/183 97/138/185 96/139/186
f 96/139/186 95/140/187 94/141/188
f 98/137/183 96/139/186 94/141/188
f 102/133/177 98/137/183 94/141/188
f 106/129/173 102/133/177 94/141/188
f 94/141/188 93/142/189 92/143/190
f 106/129/173 94/141/188 92/143/190
f 108/127/171 106/129/173 92/143/190
f 91/144/191 108/127/191 92/143/191
f 2/57/192 1/56/193 110/92/194
f 110/92/194 109/91/195 2/57/192
f 1/56/193 18/89/196 111/125/197
f 111/125/197 110/92/194 1/56/193
f 18/89/196 17/87/198 112/123/199
f 112/123/199 111/125/197 18/89/196
f 17/87/198 16/85/200 113/121/201
f 113/121/201 112/123/199 17/87/198
f 16/85/200 15/83/202 114/119/203
f 114/119/203 113/121/201 16/85/200
f 15/83/202 14/81/204 115/117/202
f 115/117/202 114/119/203 15/83/202
f 14/81/204 13/79/205 116/115/206
f 116/115/206 115/117/202 14/81/204
f 13/79/205 12/77/207 117/113/208
f 117/113/208 116/115/206 13/79/205
f 12/77/207 11/75/209 118/111/210
f 118/111/210 117/113/208 12/77/207
f 11/75/209 10/73/211 119/109/212
f 119/109/212 118/111/210 11/75/209
f 10/73/211 9/71/213 120/107/214
f 120/107/214 119/109/212 10/73/211
f 9/71/213 8/69/215 121/105/216
f 121/105/216 120/107/214 9/71/213
f 8/69/215 7/67/217 122/103/218
f 122/103/218 121/105/216 8/69/215
f 7/67/217 6/65/202 123/101/219
f 123/101/219 122/103/218 7/67/217
f 6/65/202 5/63/220 124/99/202
f 124/99/202 123/101/219 6/65/202
f 5/63/220 4/61/221 125/97/222
f 125/97/222 124/99/202 5/63/220
f 4/61/221 3/59/223 126/95/224
f 126/95/224 125/97/222 4/61/221
f 3/59/223 2/57/192 109/91/195
f 109/91/195 126/95/224 3/59/223
f 91/144/225 92/143/190 128/94/226
f 128/94/226 127/93/227 91/144/225
f 92/143/190 93/142/189 129/96/228
f 129/96/228 128/94/226 92/143/190
f 93/142/189 94/141/188 130/98/229
f 130/98/229 129/96/228 93/142/189
f 94/141/188 95/140/187 131/100/230
f 131/100/230 130/98/229 94/141/188
f 95/140/187 96/139/186 132/102/231
f 132/102/231 131/100/230 95/140/187
f 96/139/186 97/138/185 133/104/232
f 133/104/232 132/102/231 96/139/186
f 97/138/185 98/137/183 134/106/233
f 134/106/233 133/104/232 97/138/185
f 98/137/183 99/136/182 135/108/234
f 135/108/234 134/106/233 98/137/183
f 99/136/182 100/135/180 136/110/235
f 136/110/235 135/108/234 99/136/182
f 100/135/180 101/134/179 137/112/236
f 137/112/236 136/110/235 100/135/180
f 101/134/179 102/133/177 138/114/237
f 138/114/237 137/112/236 101/134/179
f 102/133/177 103/132/176 139/116/238
f 139/116/238 138/114/237 102/133/177
f 103/132/176 104/131/175 140/118/239
f 140/118/239 139/116/238 103/132/176
f 104/131/175 105/130/174 141/120/231
f 141/120/231 140/118/239 104/131/175
f 105/130/174 106/129/173 142/122/240
f 142/122/240 141/120/231 105/130/174
f 106/129/173 107/128/172 143/124/241
f 143/124/241 142/122/240 106/129/173
f 107/128/172 108/127/171 144/126/242
f 144/126/242 143/124/241 107/128/172
f 108/127/171 91/144/225 127/93/227
f 127/93/227 144/126/242 108/127/171
