# Blender v2.93.1 OBJ File: ''
# www.blender.org
mtllib Board.mtl
o Board_Mesh
v -19.442493 0.031675 19.049999
v 18.657505 0.031675 19.049999
v 18.657505 0.031684 -19.049999
v -19.442493 0.031684 -19.049999
v -19.442493 -0.095325 19.049999
v -19.442493 -0.095316 -19.049999
v 18.657505 -0.095316 -19.049999
v 18.657505 -0.095325 19.049999
vt 0.000000 0.000000
vt 1.000000 0.000000
vt 1.000000 1.000000
vt 0.000000 1.000000
vt 1.000000 0.000000
vt 1.000000 1.000000
vt 0.000000 1.000000
vt 0.000000 0.000000
vt 0.000000 0.000000
vt 1.000000 0.000000
vt 1.000000 1.000000
vt 0.000000 1.000000
vt 1.000000 0.000000
vt 0.000000 1.000000
vt 0.000000 0.000000
vt 1.000000 0.000000
vt 1.000000 1.000000
vt 0.000000 1.000000
vt 0.000000 0.000000
vt 1.000000 1.000000
vn 0.0000 1.0000 0.0000
vn 0.0000 -1.0000 -0.0000
vn 0.0000 0.0000 1.0000
vn 1.0000 0.0000 0.0000
vn 0.0000 0.0000 -1.0000
vn -1.0000 0.0000 0.0000
usemtl None
s 1
f 1/1/1 2/2/1 3/3/1 4/4/1
f 5/5/2 6/6/2 7/7/2 8/8/2
f 5/9/3 8/10/3 2/11/3 1/12/3
f 8/8/4 7/13/4 3/3/4 2/14/4
f 7/15/5 6/16/5 4/17/5 3/18/5
f 6/19/6 5/5/6 1/20/6 4/4/6
