# Blender v2.93.1 OBJ File: ''
# www.blender.org
mtllib Hotel.mtl
o Hotel_Mesh.012
v -0.720220 0.000000 0.540165
v 0.720220 0.000000 0.540165
v -0.720220 0.000000 -0.540165
v 0.720220 0.000000 -0.540165
v -0.720220 0.876671 0.540165
v 0.720220 0.876671 0.540165
v -0.720220 0.876671 -0.540165
v 0.720220 0.876671 -0.540165
v -0.720220 0.876671 0.630192
v 0.720220 0.876671 0.630192
v 0.720220 0.966699 0.630192
v -0.720220 0.966699 0.630192
v 0.720220 0.876671 -0.630192
v -0.720220 0.876671 -0.630192
v -0.720220 0.966699 -0.630192
v 0.720220 0.966699 -0.630192
v 0.720220 1.326809 0.000000
v 0.699905 1.009031 -0.596286
v -0.699905 1.009031 -0.596286
v -0.720220 1.326809 0.000000
v -0.699905 1.009031 0.596286
v 0.699905 1.009031 0.596286
v -0.090027 1.097508 0.334212
v -0.090028 1.097508 0.150343
v -0.090027 1.426940 0.334212
v -0.090027 1.426940 0.150343
v 0.090027 1.097508 0.334212
v 0.090027 1.097508 0.150343
v 0.090028 1.426940 0.334212
v 0.090027 1.426940 0.150343
vt 1.000000 0.000000
vt 1.000000 1.000000
vt 0.000000 1.000000
vt 0.000000 0.000000
vt 0.000000 0.000000
vt 1.000000 0.000000
vt 1.000000 1.000000
vt 0.000000 1.000000
vt 1.000000 0.000000
vt 1.000000 1.000000
vt 0.000000 1.000000
vt 0.000000 0.000000
vt 1.000000 0.000000
vt 1.000000 1.000000
vt 0.000000 1.000000
vt 0.000000 0.000000
vt 1.000000 1.000000
vt 0.000000 1.000000
vt 0.000000 0.000000
vt 1.000000 0.000000
vt 1.000000 0.000000
vt 0.000000 0.000000
vt 1.000000 1.000000
vt 0.000000 1.000000
vt 0.000000 1.000000
vt 1.000000 1.000000
vt 0.000000 0.000000
vt 1.000000 0.000000
vt 1.000000 0.500000
vt 0.000000 0.500000
vt 0.000000 0.000000
vt 1.000000 0.000000
vt 1.000000 1.000000
vt 0.000000 1.000000
vt 1.000000 0.000000
vt 1.000000 1.000000
vt 0.000000 1.000000
vt 0.000000 0.000000
vt 0.000000 0.000000
vt 1.000000 0.000000
vt 1.000000 1.000000
vt 0.000000 1.000000
vt 0.000000 0.000000
vt 1.000000 0.000000
vt 1.000000 1.000000
vt 0.000000 1.000000
vt 1.000000 0.000000
vt 0.000000 1.000000
vt 0.000000 0.000000
vt 1.000000 0.000000
vt 1.000000 1.000000
vt 0.000000 1.000000
vt 0.000000 0.000000
vt 1.000000 1.000000
vn 0.0000 -1.0000 0.0000
vn 0.0000 0.0000 1.0000
vn 1.0000 0.0000 0.0000
vn 0.0000 0.0000 -1.0000
vn -1.0000 0.0000 0.0000
vn 0.0000 0.8825 0.4703
vn 0.0000 0.8825 -0.4703
vn 0.0000 0.6252 -0.7805
vn -0.7004 0.6197 0.3541
vn -0.7004 0.6197 -0.3541
vn 0.0000 0.6252 0.7805
vn 0.7004 0.6197 -0.3541
vn 0.7004 0.6197 0.3541
vn 0.0000 1.0000 -0.0000
usemtl 08_-_Default
s 1
f 1/1/1 3/2/1 4/3/1
f 4/3/1 2/4/1 1/1/1
f 1/5/2 2/6/2 6/7/2
f 6/7/2 5/8/2 1/5/2
f 2/4/3 4/9/3 8/10/3
f 8/10/3 6/11/3 2/4/3
f 4/12/4 3/13/4 7/14/4
f 7/14/4 8/15/4 4/12/4
f 3/16/5 1/1/5 5/17/5
f 5/17/5 7/18/5 3/16/5
f 9/19/2 10/20/2 11/21/2
f 11/21/2 12/22/2 9/19/2
f 13/23/4 14/24/4 15/25/4
f 15/25/4 16/26/4 13/23/4
f 5/27/1 6/28/1 10/20/1
f 10/20/1 9/19/1 5/27/1
f 17/29/6 20/30/6 21/31/6
f 21/31/6 22/32/6 17/29/6
f 8/10/1 7/18/1 14/24/1
f 14/24/1 13/23/1 8/10/1
f 20/30/7 17/29/7 18/33/7
f 18/33/7 19/34/7 20/30/7
f 16/26/8 15/25/8 19/34/8
f 19/34/8 18/33/8 16/26/8
f 15/25/5 14/24/5 7/18/5
f 12/22/9 21/31/9 20/30/9
f 9/19/5 12/22/5 20/30/5
f 5/27/5 9/19/5 20/30/5
f 7/18/5 5/27/5 20/30/5
f 15/25/5 7/18/5 20/30/5
f 15/25/10 20/30/10 19/34/10
f 12/22/11 11/21/11 22/32/11
f 22/32/11 21/31/11 12/22/11
f 8/10/3 13/23/3 16/26/3
f 16/26/12 18/33/12 17/29/12
f 17/29/13 22/32/13 11/21/13
f 16/26/3 17/29/3 11/21/3
f 11/21/3 10/20/3 6/28/3
f 16/26/3 11/21/3 6/28/3
f 8/10/3 16/26/3 6/28/3
f 23/35/5 25/36/5 26/37/5
f 26/37/5 24/38/5 23/35/5
f 27/39/3 28/40/3 30/41/3
f 30/41/3 29/42/3 27/39/3
f 23/43/1 24/44/1 28/45/1
f 28/45/1 27/46/1 23/43/1
f 24/38/4 26/47/4 30/41/4
f 30/41/4 28/48/4 24/38/4
f 26/49/14 25/50/14 29/51/14
f 29/51/14 30/52/14 26/49/14
f 25/53/2 23/35/2 27/54/2
f 27/54/2 29/42/2 25/53/2
